<svg width="22" height="22" viewBox="0 0 22 22" fill="none" xmlns="http://www.w3.org/2000/svg">
<g clip-path="url(#clip0_501_142)">
<path d="M14.0006 21.7498H8.00063C6.68063 21.7498 5.58063 21.6198 4.65063 21.3398C4.31063 21.2398 4.09063 20.9098 4.11063 20.5598C4.36063 17.5698 7.39063 15.2197 11.0006 15.2197C14.6106 15.2197 17.6306 17.5598 17.8906 20.5598C17.9206 20.9198 17.7006 21.2398 17.3506 21.3398C16.4206 21.6198 15.3206 21.7498 14.0006 21.7498ZM5.72063 20.0598C6.38063 20.1898 7.13063 20.2498 8.00063 20.2498H14.0006C14.8706 20.2498 15.6206 20.1898 16.2806 20.0598C15.7506 18.1398 13.5606 16.7197 11.0006 16.7197C8.44063 16.7197 6.25063 18.1398 5.72063 20.0598Z" fill="white"/>
<path d="M14 1H8C3 1 1 3 1 8V14C1 17.78 2.14 19.85 4.86 20.62C5.08 18.02 7.75 15.97 11 15.97C14.25 15.97 16.92 18.02 17.14 20.62C19.86 19.85 21 17.78 21 14V8C21 3 19 1 14 1ZM11 13.17C9.02 13.17 7.42 11.56 7.42 9.58C7.42 7.60002 9.02 6 11 6C12.98 6 14.58 7.60002 14.58 9.58C14.58 11.56 12.98 13.17 11 13.17Z" stroke="white" stroke-width="1.5" stroke-linecap="round" stroke-linejoin="round"/>
<path d="M10.9999 13.92C8.60992 13.92 6.66992 11.97 6.66992 9.58C6.66992 7.19002 8.60992 5.25 10.9999 5.25C13.3899 5.25 15.3299 7.19002 15.3299 9.58C15.3299 11.97 13.3899 13.92 10.9999 13.92ZM10.9999 6.75C9.4399 6.75 8.16992 8.02002 8.16992 9.58C8.16992 11.15 9.4399 12.42 10.9999 12.42C12.5599 12.42 13.8299 11.15 13.8299 9.58C13.8299 8.02002 12.5599 6.75 10.9999 6.75Z" fill="white"/>
</g>
<defs>
<clipPath id="clip0_501_142">
<rect width="22" height="22" fill="white"/>
</clipPath>
</defs>
</svg>
