<svg width="22" height="22" viewBox="0 0 22 22" fill="none" xmlns="http://www.w3.org/2000/svg">
    <g clip-path="url(#clip0_501_169)">
        <path
            d="M7 21.3199C6.72 21.3199 6.42998 21.2499 6.16998 21.1099C5.59998 20.8099 5.25 20.2099 5.25 19.5699V18.15C2.23 17.84 0.25 15.6199 0.25 12.4399V6.43994C0.25 2.99994 2.56 0.689941 6 0.689941H16C19.44 0.689941 21.75 2.99994 21.75 6.43994V12.4399C21.75 15.8799 19.44 18.1899 16 18.1899H12.23L7.96997 21.03C7.67997 21.22 7.34 21.3199 7 21.3199ZM6 2.17993C3.42 2.17993 1.75 3.84993 1.75 6.42993V12.43C1.75 15.01 3.42 16.68 6 16.68C6.41 16.68 6.75 17.02 6.75 17.43V19.56C6.75 19.69 6.83 19.75 6.88 19.78C6.93001 19.81 7.03001 19.84 7.14001 19.77L11.59 16.81C11.71 16.73 11.86 16.68 12.01 16.68H16.01C18.59 16.68 20.26 15.01 20.26 12.43V6.42993C20.26 3.84993 18.59 2.17993 16.01 2.17993H6Z"
            fill="#9197B3" />
        <path
            d="M10.9998 11.1099C10.5898 11.1099 10.2498 10.7699 10.2498 10.3599V10.1499C10.2498 8.9899 11.0998 8.41989 11.4198 8.19989C11.7898 7.94989 11.9098 7.7799 11.9098 7.5199C11.9098 7.0199 11.4998 6.60986 10.9998 6.60986C10.4998 6.60986 10.0898 7.0199 10.0898 7.5199C10.0898 7.9299 9.7498 8.2699 9.3398 8.2699C8.92984 8.2699 8.58984 7.9299 8.58984 7.5199C8.58984 6.1899 9.6698 5.10986 10.9998 5.10986C12.3298 5.10986 13.4098 6.1899 13.4098 7.5199C13.4098 8.6599 12.5698 9.2299 12.2598 9.4399C11.8698 9.6999 11.7498 9.8699 11.7498 10.1499V10.3599C11.7498 10.7799 11.4098 11.1099 10.9998 11.1099Z"
            fill="#9197B3" />
        <path
            d="M11 13.6001C10.58 13.6001 10.25 13.2601 10.25 12.8501C10.25 12.4401 10.59 12.1001 11 12.1001C11.41 12.1001 11.75 12.4401 11.75 12.8501C11.75 13.2601 11.42 13.6001 11 13.6001Z"
            fill="#9197B3" />
    </g>
    <defs>
        <clipPath id="clip0_501_169">
            <rect width="22" height="22" fill="white" />
        </clipPath>
    </defs>
</svg>