<svg width="22" height="21" viewBox="0 0 22 21" fill="none" xmlns="http://www.w3.org/2000/svg">
<g clip-path="url(#clip0_501_150)">
<path d="M9.7516 14.8604V16.8904C9.7516 18.6104 8.15158 20.0004 6.18158 20.0004C4.21158 20.0004 2.60156 18.6104 2.60156 16.8904V14.8604C2.60156 16.5804 4.20158 17.8004 6.18158 17.8004C8.15158 17.8004 9.7516 16.5704 9.7516 14.8604Z" stroke="#9197B3" stroke-width="1.5" stroke-linecap="round" stroke-linejoin="round"/>
<path d="M9.7501 12.11C9.7501 12.61 9.6101 13.07 9.3701 13.47C8.78006 14.44 7.57004 15.05 6.17004 15.05C4.77004 15.05 3.56003 14.43 2.97003 13.47C2.73003 13.07 2.59009 12.61 2.59009 12.11C2.59009 11.25 2.99007 10.48 3.63007 9.92001C4.28007 9.35001 5.17003 9.01001 6.16003 9.01001C7.15003 9.01001 8.04006 9.36001 8.69006 9.92001C9.3501 10.47 9.7501 11.25 9.7501 12.11Z" stroke="#9197B3" stroke-width="1.5" stroke-linecap="round" stroke-linejoin="round"/>
<path d="M9.7516 12.11V14.86C9.7516 16.58 8.15158 17.8 6.18158 17.8C4.21158 17.8 2.60156 16.57 2.60156 14.86V12.11C2.60156 10.39 4.20158 9 6.18158 9C7.17158 9 8.06161 9.35 8.71161 9.91C9.3516 10.47 9.7516 11.25 9.7516 12.11Z" stroke="#9197B3" stroke-width="1.5" stroke-linecap="round" stroke-linejoin="round"/>
<path d="M21 8.9699V11.03C21 11.58 20.56 12.0299 20 12.0499H18.0399C16.9599 12.0499 15.97 11.2599 15.88 10.1799C15.82 9.5499 16.0599 8.9599 16.4799 8.5499C16.8499 8.1699 17.36 7.94995 17.92 7.94995H20C20.56 7.96995 21 8.4199 21 8.9699Z" stroke="#9197B3" stroke-width="1.5" stroke-linecap="round" stroke-linejoin="round"/>
<path d="M1 8.5V6.5C1 3.78 2.64 1.88 5.19 1.56C5.45 1.52 5.72 1.5 6 1.5H15C15.26 1.5 15.51 1.50999 15.75 1.54999C18.33 1.84999 20 3.76 20 6.5V7.95001H17.92C17.36 7.95001 16.85 8.17 16.48 8.55C16.06 8.96 15.82 9.55 15.88 10.18C15.97 11.26 16.96 12.05 18.04 12.05H20V13.5C20 16.5 18 18.5 15 18.5H12.5" stroke="#9197B3" stroke-width="1.5" stroke-linecap="round" stroke-linejoin="round"/>
</g>
<defs>
<clipPath id="clip0_501_150">
<rect width="22" height="21" fill="white"/>
</clipPath>
</defs>
</svg>
