<svg width="22" height="22" viewBox="0 0 22 22" fill="none" xmlns="http://www.w3.org/2000/svg">
<g clip-path="url(#clip0_501_126)">
<path d="M8 21H14C19 21 21 19 21 14V8C21 3 19 1 14 1H8C3 1 1 3 1 8V14C1 19 3 21 8 21Z" stroke="#9197B3" stroke-width="1.5" stroke-linecap="round" stroke-linejoin="round"/>
<path d="M15.28 12.61C14.15 13.74 12.53 14.09 11.1 13.64L8.51001 16.22C8.33001 16.41 7.96001 16.53 7.69001 16.49L6.49001 16.33C6.09001 16.28 5.73001 15.9 5.67001 15.51L5.51001 14.31C5.47001 14.05 5.60001 13.68 5.78001 13.49L8.36001 10.91C7.92001 9.48 8.26001 7.86001 9.39 6.73001C11.01 5.11001 13.65 5.11001 15.28 6.73001C16.9 8.34001 16.9 10.98 15.28 12.61Z" stroke="#9197B3" stroke-width="1.5" stroke-miterlimit="10" stroke-linecap="round" stroke-linejoin="round"/>
<path d="M9.45 15.28L8.59998 14.42" stroke="#9197B3" stroke-width="1.5" stroke-miterlimit="10" stroke-linecap="round" stroke-linejoin="round"/>
<path d="M12.3945 9.70001H12.4035" stroke="#9197B3" stroke-width="2" stroke-linecap="round" stroke-linejoin="round"/>
</g>
<defs>
<clipPath id="clip0_501_126">
<rect width="22" height="22" fill="white"/>
</clipPath>
</defs>
</svg>
