<svg width="22" height="22" viewBox="0 0 22 22" fill="none" xmlns="http://www.w3.org/2000/svg">
<g clip-path="url(#clip0_501_133)">
<path d="M14 21.75H8C2.57 21.75 0.25 19.43 0.25 14V8C0.25 2.57 2.57 0.25 8 0.25H14C19.43 0.25 21.75 2.57 21.75 8V14C21.75 19.43 19.43 21.75 14 21.75ZM8 1.75C3.39 1.75 1.75 3.39 1.75 8V14C1.75 18.61 3.39 20.25 8 20.25H14C18.61 20.25 20.25 18.61 20.25 14V8C20.25 3.39 18.61 1.75 14 1.75H8Z" fill="#9197B3"/>
<path d="M11.0006 12.0797C10.8706 12.0797 10.7406 12.0497 10.6206 11.9797L5.32061 8.9197C4.96061 8.7097 4.84059 8.2497 5.05059 7.8997C5.26059 7.5397 5.72061 7.4197 6.07061 7.6297L10.9906 10.4797L15.8806 7.6497C16.2406 7.4397 16.7006 7.5697 16.9006 7.9197C17.1006 8.2697 16.9806 8.7397 16.6306 8.9397L11.3706 11.9797C11.2606 12.0397 11.1306 12.0797 11.0006 12.0797Z" fill="#9197B3"/>
<path d="M11 17.5201C10.59 17.5201 10.25 17.1801 10.25 16.7701V11.3301C10.25 10.9201 10.59 10.5801 11 10.5801C11.41 10.5801 11.75 10.9201 11.75 11.3301V16.7701C11.75 17.1801 11.41 17.5201 11 17.5201Z" fill="#9197B3"/>
<path d="M11.0002 17.7498C10.4202 17.7498 9.8503 17.6198 9.3903 17.3698L6.19025 15.5898C5.23025 15.0598 4.49023 13.7898 4.49023 12.6898V9.2998C4.49023 8.20981 5.24025 6.9398 6.19025 6.3998L9.3903 4.6198C10.3103 4.1098 11.6902 4.1098 12.6102 4.6198L15.8102 6.3998C16.7702 6.9298 17.5103 8.19981 17.5103 9.2998V12.6898C17.5103 13.7798 16.7602 15.0498 15.8102 15.5898L12.6102 17.3698C12.1502 17.6298 11.5802 17.7498 11.0002 17.7498ZM11.0002 5.7498C10.6702 5.7498 10.3502 5.8098 10.1202 5.9398L6.92026 7.7198C6.43026 7.9898 5.99023 8.7498 5.99023 9.2998V12.6898C5.99023 13.2498 6.43026 13.9998 6.92026 14.2698L10.1202 16.0498C10.5802 16.3098 11.4202 16.3098 11.8802 16.0498L15.0802 14.2698C15.5702 13.9998 16.0103 13.2398 16.0103 12.6898V9.2998C16.0103 8.73981 15.5702 7.9898 15.0802 7.7198L11.8802 5.9398C11.6502 5.8098 11.3302 5.7498 11.0002 5.7498Z" fill="#9197B3"/>
</g>
<defs>
<clipPath id="clip0_501_133">
<rect width="22" height="22" fill="white"/>
</clipPath>
</defs>
</svg>
