<svg width="22" height="22" viewBox="0 0 22 22" fill="none" xmlns="http://www.w3.org/2000/svg">
<g clip-path="url(#clip0_501_160)">
<path d="M11 21.7503C10.37 21.7503 9.78 21.5104 9.34 21.0604L7.82001 19.5404C7.70001 19.4204 7.38 19.2904 7.22 19.2904H5.06C3.76 19.2904 2.70999 18.2403 2.70999 16.9403V14.7804C2.70999 14.6204 2.57999 14.3004 2.45999 14.1804L0.94 12.6604C0.5 12.2204 0.25 11.6303 0.25 11.0003C0.25 10.3703 0.49 9.7803 0.94 9.3403L2.45999 7.82028C2.57999 7.70028 2.70999 7.3803 2.70999 7.2203V5.06039C2.70999 3.76039 3.76 2.71029 5.06 2.71029H7.22C7.38 2.71029 7.70001 2.58029 7.82001 2.46029L9.34 0.940273C10.22 0.0602734 11.78 0.0602734 12.66 0.940273L14.18 2.46029C14.3 2.58029 14.62 2.71029 14.78 2.71029H16.94C18.24 2.71029 19.29 3.76039 19.29 5.06039V7.2203C19.29 7.3803 19.42 7.70028 19.54 7.82028L21.06 9.3403C21.5 9.7803 21.75 10.3703 21.75 11.0003C21.75 11.6303 21.51 12.2204 21.06 12.6604L19.54 14.1804C19.42 14.3004 19.29 14.6204 19.29 14.7804V16.9403C19.29 18.2403 18.24 19.2904 16.94 19.2904H14.78C14.62 19.2904 14.3 19.4204 14.18 19.5404L12.66 21.0604C12.22 21.5104 11.63 21.7503 11 21.7503ZM3.51999 13.1203C3.91999 13.5203 4.20999 14.2204 4.20999 14.7804V16.9403C4.20999 17.4103 4.59 17.7904 5.06 17.7904H7.22C7.78 17.7904 8.48001 18.0803 8.88 18.4803L10.4 20.0003C10.72 20.3203 11.28 20.3203 11.6 20.0003L13.12 18.4803C13.52 18.0803 14.22 17.7904 14.78 17.7904H16.94C17.41 17.7904 17.79 17.4103 17.79 16.9403V14.7804C17.79 14.2204 18.08 13.5203 18.48 13.1203L20 11.6003C20.16 11.4403 20.25 11.2303 20.25 11.0003C20.25 10.7703 20.16 10.5604 20 10.4004L18.48 8.88034C18.08 8.48034 17.79 7.7803 17.79 7.2203V5.06039C17.79 4.59039 17.41 4.21029 16.94 4.21029H14.78C14.22 4.21029 13.52 3.92035 13.12 3.52035L11.6 2.00033C11.28 1.68033 10.72 1.68033 10.4 2.00033L8.88 3.52035C8.48001 3.92035 7.78 4.21029 7.22 4.21029H5.06C4.59 4.21029 4.20999 4.59039 4.20999 5.06039V7.2203C4.20999 7.7803 3.91999 8.48034 3.51999 8.88034L2 10.4004C1.84 10.5604 1.75 10.7703 1.75 11.0003C1.75 11.2303 1.84 11.4403 2 11.6003L3.51999 13.1203Z" fill="#9197B3"/>
<path d="M14.0002 15C13.4402 15 12.9902 14.55 12.9902 14C12.9902 13.45 13.4402 13 13.9902 13C14.5402 13 14.9902 13.45 14.9902 14C14.9902 14.55 14.5502 15 14.0002 15Z" fill="#9197B3"/>
<path d="M8.01001 9C7.45001 9 7 8.55 7 8C7 7.45 7.45 7 8 7C8.55 7 9 7.45 9 8C9 8.55 8.56001 9 8.01001 9Z" fill="#9197B3"/>
<path d="M7.99945 14.7495C7.80945 14.7495 7.61945 14.6795 7.46945 14.5295C7.17945 14.2395 7.17945 13.7595 7.46945 13.4695L13.4695 7.46945C13.7595 7.17945 14.2395 7.17945 14.5295 7.46945C14.8195 7.75945 14.8195 8.23951 14.5295 8.52951L8.52945 14.5295C8.37945 14.6795 8.18945 14.7495 7.99945 14.7495Z" fill="#9197B3"/>
</g>
<defs>
<clipPath id="clip0_501_160">
<rect width="22" height="22" fill="white"/>
</clipPath>
</defs>
</svg>
